<svg xmlns="http://www.w3.org/2000/svg" viewBox="0 0 196.39 148.51"><defs><style>.cls-1{font-size:44.2px;fill:#231f20;font-family:YetR-HM, Yet R;}</style></defs><g id="Layer_2" data-name="Layer 2"><g id="Layer_1-2" data-name="Layer 1"><path d="M166.46,43.8v6.82a9.33,9.33,0,0,0-.34,1.36,27.67,27.67,0,0,1-3.22,10.73c-3.23,5.72-7.26,10.42-14.46,10.93a1.66,1.66,0,0,0-1,.8,15.62,15.62,0,0,0-1.08,2.26c-1.87,4.51-4.17,8.91-5.44,13.58-1.05,3.9-.88,8.12-1.27,12.29H131c-.06-.26-.11-.43-.13-.6-.68-8.68.48-17,4.48-24.86,4.28-8.39,7-17.12,5.61-26.71-.35-2.43-.88-4.84-1.33-7.26l-.44,0c0,.4,0,.79,0,1.18a74.82,74.82,0,0,1-3.23,24.39c-1.45,5-3.52,9.67-8.08,12.73A20.07,20.07,0,0,1,117,84.78c-.19.8-.34,1.55-.52,2.29-1.36,5.54-3.81,10.37-9.73,12a35.41,35.41,0,0,1-10,1.25c-5.44-.08-10.23-2-13.17-7-1.34-2.24-2.19-4.76-3.39-7.08a2.87,2.87,0,0,0-1.75-1.42C71.69,84,67.05,80.25,63.82,74.53c-3.59-6.38-5-13.37-5.45-20.58-.23-3.65-.33-7.31-.49-11.07-.19.19-.31.25-.34.35C54.63,52.67,54.48,62,58.71,71.14c3.16,6.82,6.57,13.54,7.37,21.15.35,3.41.44,6.85.64,10.27H57.29c0-.8,0-1.5,0-2.21a42.77,42.77,0,0,0-5-21.19,12.59,12.59,0,0,0-6.89-6.41c-7.14-2.69-12.12-7.57-14.16-15a40.59,40.59,0,0,1-.69-17.24,51,51,0,0,1,8.84-20.94C44.6,11.94,51.06,5.79,59.75,2.3c5.51-2.21,11.11-3.09,16.58,0a5.67,5.67,0,0,0,5.07.45A51.08,51.08,0,0,1,96.15,0a56.86,56.86,0,0,1,21.62,3.44A2.55,2.55,0,0,0,120.5,3,12.1,12.1,0,0,1,129.61.64C135.35,1.34,140.3,4,145,7.13c9.28,6.28,15,15.2,18.59,25.64C164.77,36.36,165.5,40.12,166.46,43.8ZM106.23,70.62c3.12.89,5.83,1.79,8.61,2.44,3.29.77,6.66,1.13,8.82-2.29a27.76,27.76,0,0,0,4.65-13.55c.39-9.26.38-18.53.42-27.8a13.15,13.15,0,0,0-4.92-10.33,39.7,39.7,0,0,0-21-9c-8.66-1.06-16.82.9-24.65,4.5a17.76,17.76,0,0,0-6.64,5.33c-3.24,4.12-4.08,9-4,14,.06,6.8.07,13.64.74,20.4A71.7,71.7,0,0,0,71.3,67.79a7.93,7.93,0,0,0,7,5.7,23.41,23.41,0,0,0,13.9-2.84c-2.35-1.78-4.58-3.45-6.78-5.16a15,15,0,0,1-4.55-17.12,7.29,7.29,0,0,1,7.31-5c7,0,14,0,21,.05a9.3,9.3,0,0,1,9.5,10.37,18.42,18.42,0,0,1-7.17,12.92C109.9,68,108.23,69.15,106.23,70.62ZM46.36,61.78c0-1.08.06-2,0-2.84a67.11,67.11,0,0,1,3.42-25.85c2-6.42,4.66-12.53,9.78-17.18,1.84-1.67,3.9-3.1,6.08-4.82a6.43,6.43,0,0,0-1.08.19,36.21,36.21,0,0,0-12,7.62c-9.26,9.31-14,20.4-12.85,33.71C40,56.85,42.61,60.58,46.36,61.78Zm85.45-50.16c15.78,13.44,19.94,31.19,18.88,51,3.73-3,5.86-6.68,6.06-11.33a43.62,43.62,0,0,0-2.2-15.47C150.81,24.16,142.85,16.45,131.81,11.62ZM108.9,82.41c-3.1-1.56-6.21-3.15-9.35-4.68a1.47,1.47,0,0,0-1.16,0c-3,1.64-6,3.33-9,5,1.21,5.07,4.75,7.92,9.85,8C104.17,90.94,107.21,88.33,108.9,82.41Zm-2.17-27.28H91.16c2.67,2.69,4.93,5.12,7.39,7.33a2.56,2.56,0,0,0,2.48-.27C103,60,104.75,57.62,106.73,55.13Z"/><path d="M122.13,28.32a4.66,4.66,0,0,1-4.92,4.94,4.91,4.91,0,0,1-5.08-4.89,4.7,4.7,0,0,1,4.76-4.95A4.92,4.92,0,0,1,122.13,28.32Z"/><path d="M81,23.58a4.88,4.88,0,1,1-.18,9.75,4.75,4.75,0,0,1-4.63-5.08A4.63,4.63,0,0,1,81,23.58Z"/><text class="cls-1" transform="translate(0 139.71) scale(0.69 1)">Happy Hounds</text></g></g></svg>